#!OML:ASF E:\id_vita\Project 1\Capture day 1\Session 1\Male1.ASF
:FULLY-SPECIFIED
:DEGREES
1
root 5.50216 16.9959 -0.931701 -163.69 -78.7959 166.858
lowerback -1.08194 -0.441682 -5.29351
upperback 3.46745 -0.479117 0.451502
thorax 4.24555 -0.44466 3.41188
lowerneck -16.7917 -8.49059 -13.06
upperneck 29.1978 -10.4708 4.4082
head 13.6561 -5.68084 2.06939
rclavicle -1.46604e-015 4.37326e-015
rhumerus -24.1324 -1.44222 -83.9534
rradius 31.8889
rwrist -15.4463
rhand -12.7351 -30.5246
rfingers 7.12502
rthumb 13.3485 -60.077
lclavicle -1.46604e-015 4.37326e-015
lhumerus -24.3287 4.66418 86.0922
lradius 25.9602
lwrist 8.25516
lhand -23.3507 -12.2547
lfingers 7.12502
lthumb 3.10442 17.7024
rfemur -3.20736 0.594734 11.4709
rtibia 10.6411
rfoot -9.3848 -15.9597
rtoes -1.75562
lfemur -4.43345 4.16712 -16.8008
ltibia 21.0872
lfoot -19.7931 19.8706
ltoes 3.42099
2
root 7.51485 18.2522 -3.36542 -167.839 -84.3141 178.559
lowerback -7.06262 -0.0348301 1.43953
upperback 2.1331 -0.371025 2.58964
thorax 6.20482 -0.196061 1.84877
lowerneck -19.4357 0.763153 -0.739054
upperneck 19.3397 1.60396 -1.79666
head 9.31466 0.447754 -0.287419
rclavicle -1.39149e-015 2.38542e-015
rhumerus -29.2075 -23.4149 -75.4266
rradius 28.7777
rwrist 20.7096
rhand -23.7701 30.7857
rfingers 7.12502
rthumb 2.69937 0.823081
lclavicle -1.39149e-015 2.38542e-015
lhumerus -32.8864 -3.42022 87.7609
lradius 34.3525
lwrist 17.4677
lhand -14.9403 36.0427
lfingers 7.12502
lthumb 11.2223 65.7225
rfemur -20.1167 4.92507 22.5274
rtibia 32.3672
rfoot -0.27394 13.3926
rtoes 47.6147
lfemur -26.3822 0.851595 -18.8607
ltibia 51.6176
lfoot -17.6773 2.86648
ltoes -27.3087
